#!OML:ASF I:\Actors\actors\Patient Classification 2\Patient 1\Session 1\actor1.ASF
:FULLY-SPECIFIED
:DEGREES
545
root -0.443591 18.7399 5.14744 1.6672 -1.22113 -0.910106
lowerback 3.25699 -0.0108972 -1.69643
upperback 1.64087 -0.0565547 1.49458
thorax -0.139411 -0.0431818 2.48699
lowerneck -12.4226 -2.27799 -2.01972
upperneck 34.8625 -3.60064 2.04184
head 14.0261 -1.56205 0.623721
rclavicle -2.70844e-015 -2.08724e-014
rhumerus -33.1585 32.2178 -97.1712
rradius 91.1898
rwrist 32.2793
rhand -12.7312 -57.0172
rfingers 7.12502
rthumb 13.3523 -86.5694
lclavicle -2.70844e-015 -2.08724e-014
lhumerus 14.8238 -53.4938 59.1218
lradius 70.4833
lwrist -18.6028
lhand 17.4508 -26.4158
lfingers 7.12502
lthumb 42.1533 -1.87731
rfemur 0 0 0
rtibia 0
rfoot 0 0
rtoes 0
lfemur -6.7058 -5.29988 -14.0653
ltibia 22.3391
lfoot -21.3661 14.4198
ltoes -54.7269
546
root -0.443823 18.7401 5.14956 1.70156 -1.32229 -0.934958
lowerback 3.31272 -0.0103867 -1.56807
upperback 1.57854 -0.0527664 1.44724
thorax -0.235056 -0.0387742 2.36607
lowerneck -12.3311 -2.28664 -2.00558
upperneck 34.812 -3.63596 2.09043
head 13.9846 -1.57085 0.636173
rclavicle 1.36664e-015 3.97569e-016
rhumerus -33.447 32.0019 -97.3812
rradius 91.3372
rwrist 31.6282
rhand -15.165 -56.0848
rfingers 7.12502
rthumb 11.0056 -85.7763
lclavicle 1.36664e-015 3.97569e-016
lhumerus 13.3867 -52.7711 60.5048
lradius 70.6173
lwrist -17.6196
lhand 16.4038 -26.5271
lfingers 7.12502
lthumb 41.1713 -1.66542
rfemur 0 0 0
rtibia 0
rfoot 0 0
rtoes 0
lfemur -6.70238 -5.29302 -14.0432
ltibia 22.3244
lfoot -21.432 14.4703
ltoes -54.6897
547
root -0.444927 18.7403 5.15253 1.7463 -1.46187 -0.946051
lowerback 3.49229 0.0106323 -1.4129
upperback 1.41882 -0.0215016 1.37077
thorax -0.501158 -0.0180791 2.19946
lowerneck -12.1906 -2.304 -1.94136
upperneck 34.826 -3.68702 2.09907
head 13.9596 -1.58544 0.622066
rclavicle -1.83876e-015 2.18663e-015
rhumerus -33.9228 31.7032 -97.6817
rradius 91.4687
rwrist 30.9127
rhand -15.6525 -56.0365
rfingers 7.12502
rthumb 10.5354 -85.7525
lclavicle -1.83876e-015 2.18663e-015
lhumerus 11.4442 -51.9294 62.293
lradius 70.9338
lwrist -15.5849
lhand 15.1375 -26.2037
lfingers 7.12502
lthumb 39.9811 -0.971905
rfemur 0 0 0
rtibia 0
rfoot 0 0
rtoes 0
lfemur -6.69448 -5.24692 -14.0337
ltibia 22.297
lfoot -21.4777 14.5321
ltoes -54.6503
548
root -0.445523 18.7408 5.1561 1.77911 -1.62617 -0.927962
lowerback 3.78651 0.0499178 -1.28425
upperback 1.18905 0.0333127 1.30904
thorax -0.903937 0.0154279 2.06198
lowerneck -12.0032 -2.31303 -1.888
upperneck 34.8678 -3.71489 2.08249
head 13.9356 -1.59492 0.604053
rclavicle 6.95746e-016 1.39149e-014
rhumerus -34.5721 31.3444 -98.0147
rradius 91.6282
rwrist 30.1809
rhand -16.0249 -55.8127
rfingers 7.12502
rthumb 10.1761 -85.5466
lclavicle 6.95746e-016 1.39149e-014
lhumerus 9.07623 -50.879 64.5371
lradius 71.3923
lwrist -12.3824
lhand 13.498 -25.4839
lfingers 7.12502
lthumb 38.436 0.195334
rfemur 0 0 0
rtibia 0
rfoot 0 0
rtoes 0
lfemur -6.66314 -5.16088 -14.0597
ltibia 22.2559
lfoot -21.4966 14.6055
ltoes -54.6495
549
root -0.446124 18.741 5.16182 1.77637 -1.78955 -0.882176
lowerback 3.95516 0.0921618 -1.28112
upperback 1.0645 0.0888383 1.29859
thorax -1.12848 0.0462557 2.04711
lowerneck -11.9225 -2.32181 -1.8904
upperneck 34.8756 -3.73974 2.1098
head 13.9224 -1.60345 0.612628
rclavicle -5.36719e-015 1.72943e-014
rhumerus -35.102 30.9847 -98.2115
rradius 91.8706
rwrist 29.3353
rhand -16.3028 -55.468
rfingers 7.12502
rthumb 9.90804 -85.2149
lclavicle -5.36719e-015 1.72943e-014
lhumerus 6.63461 -49.3736 66.9178
lradius 71.9197
lwrist -8.87987
lhand 11.1403 -25.3906
lfingers 7.12502
lthumb 36.2071 0.874816
rfemur 0 0 0
rtibia 0
rfoot 0 0
rtoes 0
lfemur -6.57421 -5.16649 -14.129
ltibia 22.2038
lfoot -21.5808 14.7611
ltoes -54.6402
550
root -0.444382 18.7405 5.1678 1.77508 -1.87651 -0.812663
lowerback 4.0028 0.102503 -1.29717
upperback 1.00897 0.101468 1.27305
thorax -1.21264 0.0538127 2.02931
lowerneck -11.9047 -2.33431 -1.89189
upperneck 34.8752 -3.79381 2.20528
head 13.9224 -1.61494 0.64316
rclavicle 4.05024e-015 -1.27222e-014
rhumerus -35.5087 30.6481 -98.3284
rradius 92.1255
rwrist 28.2155
rhand -15.5454 -55.6566
rfingers 7.12502
rthumb 10.6387 -85.3673
lclavicle 4.05024e-015 -1.27222e-014
lhumerus 4.26593 -47.6929 69.1096
lradius 72.5746
lwrist -5.86697
lhand 8.66849 -25.6884
lfingers 7.12502
lthumb 33.8624 1.12576
rfemur 0 0 0
rtibia 0
rfoot 0 0
rtoes 0
lfemur -6.50917 -5.28209 -14.2316
ltibia 22.1667
lfoot -21.707 14.9328
ltoes -54.6377
